<?xml version="1.0" encoding="iso-8859-1"?>
<!-- Generator: Adobe Illustrator 19.0.0, SVG Export Plug-In . SVG Version: 6.00 Build 0)  -->
<svg xmlns="http://www.w3.org/2000/svg" xmlns:xlink="http://www.w3.org/1999/xlink" version="1.1" id="Layer_1" x="0px" y="0px" viewBox="0 0 511.997 511.997" style="enable-background:new 0 0 511.997 511.997;" xml:space="preserve" width="512px" height="512px">
<g>
	<g>
		<path d="M487.582,69.293l-103.587-0.002c-13.482,0-24.415,10.931-24.415,24.415s10.93,24.415,24.415,24.415l44.646,0.002    l-113.701,113.7L263.15,180.03c-4.58-4.579-10.79-7.152-17.265-7.152c-6.475,0-12.685,2.573-17.263,7.152L97.661,310.993V36.262    c0-13.484-10.931-24.415-24.415-24.415h-48.83C10.931,11.847,0,22.779,0,36.262c0,13.484,10.931,24.415,24.415,24.415H48.83    v146.491H24.415C10.931,207.168,0,218.1,0,231.583s10.931,24.415,24.415,24.415H48.83v146.491H24.415    C10.931,402.489,0,413.421,0,426.904s10.931,24.415,24.415,24.415H48.83v24.415c0,13.484,10.931,24.415,24.415,24.415    c13.484,0,24.415-10.931,24.415-24.415v-24.415h146.491v24.415c0,13.484,10.931,24.415,24.415,24.415    c13.484,0,24.415-10.931,24.415-24.415v-24.415h146.491v24.415c0,13.484,10.932,24.415,24.415,24.415s24.415-10.931,24.415-24.415    v-48.83c0-13.484-10.931-24.415-24.415-24.415H97.661v-22.441l148.226-148.226l51.789,51.793    c4.579,4.579,10.79,7.152,17.265,7.152c6.475,0,12.684-2.572,17.263-7.152l130.963-130.963v44.642    c0,13.484,10.931,24.415,24.415,24.415c13.484,0,24.415-10.932,24.415-24.415V93.708    C511.997,80.224,501.065,69.293,487.582,69.293z" fill="#D1232A"/>
	</g>
</g>
<g>
</g>
<g>
</g>
<g>
</g>
<g>
</g>
<g>
</g>
<g>
</g>
<g>
</g>
<g>
</g>
<g>
</g>
<g>
</g>
<g>
</g>
<g>
</g>
<g>
</g>
<g>
</g>
<g>
</g>
</svg>
