<?xml version="1.0" encoding="utf-8"?>
<!-- Generator: Adobe Illustrator 19.0.0, SVG Export Plug-In . SVG Version: 6.00 Build 0)  -->
<svg version="1.1" id="Layer_1" xmlns="http://www.w3.org/2000/svg" xmlns:xlink="http://www.w3.org/1999/xlink" x="0px" y="0px"
	 viewBox="0 0 528.6 260.2" style="enable-background:new 0 0 528.6 260.2;" xml:space="preserve">
<style type="text/css">
	.st0{fill:#808184;}
	.st1{fill:#D1252B;}
	.st2{fill:none;stroke:#808184;}
</style>
<path class="st0" d="M81.7,255.8l-1.7,3.8h-2l7.2-15.8l7.2,15.8h-2l-1.7-3.8H81.7z M85.2,247.9l-2.7,6.1h5.4L85.2,247.9z"/>
<path class="st0" d="M103.1,259.6h-2.3l-4.5-6.4h-0.8v6.4h-1.9v-15.2H96c1.3,0,2.8,0,4,0.7c1.3,0.7,2,2.2,2,3.6c0,2.2-1.4,4-3.6,4.2
	L103.1,259.6z M95.6,251.6h0.6c1.9,0,4-0.4,4-2.8c0-2.4-2.3-2.7-4.1-2.7h-0.5V251.6z"/>
<path class="st0" d="M115.7,247.3c-1.1-1-2.6-1.5-4-1.5c-3.4,0-6,2.8-6,6.2c0,3.3,2.6,6.2,5.9,6.2c1.5,0,2.9-0.6,4-1.6v2.2
	c-1.2,0.7-2.6,1.1-4,1.1c-4.3,0-7.9-3.4-7.9-7.8c0-4.5,3.6-8,8.1-8c1.3,0,2.7,0.3,3.8,1V247.3z"/>
<polygon class="st0" points="126.9,250.5 126.9,244.4 128.8,244.4 128.8,259.6 126.9,259.6 126.9,252.3 119.6,252.3 119.6,259.6 
	117.7,259.6 117.7,244.4 119.6,244.4 119.6,250.5 "/>
<rect x="131.4" y="244.4" class="st0" width="1.9" height="15.2"/>
<polygon class="st0" points="140.2,259.6 138.3,259.6 138.3,246.2 134.7,246.2 134.7,244.4 143.8,244.4 143.8,246.2 140.2,246.2 "/>
<polygon class="st0" points="145.3,244.4 153.5,244.4 153.5,246.2 147.2,246.2 147.2,250.4 153.3,250.4 153.3,252.1 147.2,252.1 
	147.2,257.9 153.5,257.9 153.5,259.6 145.3,259.6 "/>
<path class="st0" d="M166.8,247.3c-1.1-1-2.6-1.5-4-1.5c-3.4,0-6,2.8-6,6.2c0,3.3,2.6,6.2,6,6.2c1.5,0,2.9-0.6,4-1.6v2.2
	c-1.2,0.7-2.7,1.1-4,1.1c-4.3,0-7.9-3.4-7.9-7.8c0-4.5,3.6-8,8.1-8c1.3,0,2.7,0.3,3.8,1V247.3z"/>
<polygon class="st0" points="173.2,259.6 171.3,259.6 171.3,246.2 167.7,246.2 167.7,244.4 176.8,244.4 176.8,246.2 173.2,246.2 "/>
<path class="st0" d="M179.9,244.4v8.9c0,2.5,0.7,4.8,3.7,4.8c2.9,0,3.7-2.3,3.7-4.8v-8.9h1.9v9.6c0,3.3-2.1,5.9-5.6,5.9
	c-3.5,0-5.6-2.5-5.6-5.9v-9.6H179.9z"/>
<path class="st0" d="M201.2,259.6h-2.3l-4.5-6.4h-0.8v6.4h-1.9v-15.2h2.3c1.3,0,2.8,0,4,0.7c1.3,0.7,2,2.2,2,3.6
	c0,2.2-1.4,4-3.6,4.2L201.2,259.6z M193.6,251.6h0.6c1.9,0,4-0.4,4-2.8c0-2.4-2.3-2.7-4.1-2.7h-0.5V251.6z"/>
<polygon class="st0" points="202.6,244.4 210.8,244.4 210.8,246.2 204.5,246.2 204.5,250.4 210.6,250.4 210.6,252.1 204.5,252.1 
	204.5,257.9 210.8,257.9 210.8,259.6 202.6,259.6 "/>
<path class="st0" d="M224.6,244.4h3.1c4.6,0,8.5,2.5,8.5,7.5c0,5.2-3.8,7.7-8.6,7.7h-3.1V244.4z M226.5,257.9h0.7
	c3.9,0,7.2-1.4,7.2-5.9c0-4.4-3.3-5.9-7.2-5.9h-0.7V257.9z"/>
<polygon class="st0" points="238.1,244.4 246.3,244.4 246.3,246.2 240,246.2 240,250.4 246.1,250.4 246.1,252.1 240,252.1 
	240,257.9 246.3,257.9 246.3,259.6 238.1,259.6 "/>
<path class="st0" d="M255.3,247.3c-0.6-0.9-1.3-1.4-2.4-1.4c-1.2,0-2.5,0.8-2.5,2.2c0,1.2,1.2,1.8,2.1,2.2l1.1,0.4
	c2.2,0.8,3.8,2,3.8,4.6c0,2.7-2.1,4.7-4.8,4.7c-2.5,0-4.4-1.8-4.7-4.2l1.9-0.4c0,1.7,1.3,2.9,2.9,2.9c1.6,0,2.8-1.4,2.8-2.9
	c0-1.6-1.3-2.3-2.6-2.9l-1-0.4c-1.7-0.7-3.3-1.7-3.3-3.8c0-2.5,2.2-3.9,4.5-3.9c1.7,0,3.1,0.8,3.9,2.3L255.3,247.3z"/>
<rect x="259.3" y="244.4" class="st0" width="1.9" height="15.2"/>
<path class="st0" d="M277.9,252v0.6c0,4.2-2.9,7.4-7.2,7.4c-4.2,0-7.7-3.7-7.7-7.9c0-4.4,3.5-7.9,7.9-7.9c2.3,0,4.7,1.1,6.2,2.9
	l-1.3,1.3c-1.1-1.5-2.9-2.5-4.8-2.5c-3.4,0-6.1,2.8-6.1,6.2c0,3.2,2.6,6.2,5.9,6.2c2.3,0,4.9-2,5-4.5h-3.9V252H277.9z"/>
<polygon class="st0" points="279.6,243.7 291,255.6 291,244.4 292.8,244.4 292.8,260.2 281.5,248.3 281.5,259.6 279.6,259.6 "/>
<polygon class="st0" points="309.1,257.9 313.7,257.9 313.7,259.6 307.2,259.6 307.2,244.4 309.1,244.4 "/>
<path class="st0" d="M317.1,255.8l-1.7,3.8h-2l7.2-15.8l7.2,15.8h-2l-1.7-3.8H317.1z M320.5,247.9l-2.7,6.1h5.4L320.5,247.9z"/>
<polygon class="st0" points="328.9,243.7 340.2,255.6 340.2,244.4 342.1,244.4 342.1,260.2 330.8,248.3 330.8,259.6 328.9,259.6 "/>
<path class="st0" d="M344.7,244.4h3.1c4.6,0,8.5,2.5,8.5,7.5c0,5.2-3.8,7.7-8.6,7.7h-3.1V244.4z M346.6,257.9h0.7
	c3.9,0,7.2-1.4,7.2-5.9c0-4.4-3.3-5.9-7.2-5.9h-0.7V257.9z"/>
<path class="st0" d="M364.9,247.3c-0.6-0.9-1.3-1.4-2.4-1.4c-1.2,0-2.5,0.8-2.5,2.2c0,1.2,1.2,1.8,2.1,2.2l1.1,0.4
	c2.2,0.8,3.8,2,3.8,4.6c0,2.7-2.1,4.7-4.8,4.7c-2.5,0-4.4-1.8-4.7-4.2l1.9-0.4c0,1.7,1.3,2.9,2.9,2.9c1.6,0,2.8-1.4,2.8-2.9
	c0-1.6-1.3-2.3-2.6-2.9l-1-0.4c-1.7-0.7-3.3-1.7-3.3-3.8c0-2.5,2.2-3.9,4.5-3.9c1.7,0,3.1,0.8,3.9,2.3L364.9,247.3z"/>
<path class="st0" d="M380.1,247.3c-1.1-1-2.6-1.5-4-1.5c-3.4,0-6,2.8-6,6.2c0,3.3,2.6,6.2,6,6.2c1.5,0,2.9-0.6,4-1.6v2.2
	c-1.2,0.7-2.7,1.1-4,1.1c-4.3,0-7.9-3.4-7.9-7.8c0-4.5,3.6-8,8.1-8c1.3,0,2.7,0.3,3.8,1V247.3z"/>
<path class="st0" d="M384.4,255.8l-1.7,3.8h-2l7.2-15.8l7.2,15.8h-2l-1.7-3.8H384.4z M387.9,247.9l-2.7,6.1h5.4L387.9,247.9z"/>
<path class="st0" d="M398.3,259.6h-1.9v-15.2h2.2c4.7,0,6.1,1.6,6.1,4.4c0,3.2-2.4,4.4-5.3,4.4h-1.1V259.6z M398.3,251.5h0.6
	c1.9,0,4-0.4,4-2.8c0-2.4-2.3-2.7-4.1-2.7h-0.5V251.5z"/>
<rect x="406.3" y="244.4" class="st0" width="1.9" height="15.2"/>
<polygon class="st0" points="410.9,243.7 422.3,255.6 422.3,244.4 424.1,244.4 424.1,260.2 412.8,248.3 412.8,259.6 410.9,259.6 "/>
<path class="st0" d="M440.7,252v0.6c0,4.2-2.9,7.4-7.2,7.4c-4.2,0-7.7-3.7-7.7-7.9c0-4.4,3.5-7.9,7.9-7.9c2.4,0,4.7,1.1,6.2,2.9
	l-1.3,1.3c-1.1-1.5-2.9-2.5-4.8-2.5c-3.4,0-6,2.8-6,6.2c0,3.2,2.6,6.2,5.9,6.2c2.4,0,4.9-2,5-4.5h-3.9V252H440.7z"/>
<path class="st1" d="M476.3,128.2c-6.2-0.5-62.3-3.9-49.5-2.9c6.7,1-22.1,2.6-22.6,2.4c-7.7-3.4-17.3,0.5-24.5-1
	c-14.4-2.9-27.8,0.5-41.8-0.5c-5.8-0.5-11-2.4-16.8-3.4c-0.5-0.5-1.4-1.4-1.9-1.9c-3.8-2.4-8.6,0-12.5-2.4c-4.8-2.4-10.5,1-14.4-2.9
	c-1.4-1-1.9-3.4-3.4-3.4c-5.8-1-12.5,0.5-16.3-4.8c-2.9-3.4-1.9-8.2-0.5-12.5c0.5-1.9,1-3.8,1.9-6.3c0-1,2.4-0.5,3.8-0.5
	c-1,0.5-0.5,1.4-0.5,1.9c2.9,0,6.2-1,8.2,0.5c2.4,1.4-0.5,6.2,2.4,6.7c5.8,1.4,12-2.9,16.8-0.5c3.4,1.4,6.2,7.2,9.1,4.8
	c1.4-0.9,3.8,0,4.3-2.4c11.5,0.5,22.6-2.9,34.1-1.9c-0.5,0.5,1,1,0.5,1.4c2.9,0,5.3,0.5,7.7-1.4c1.9-1.4,4.8-1,5.8,0.5
	c1.4,1,2.9,1.4,4.3,1c0.9-0.5,0.9-1.4,0.9-2.4c0.5-1.4,1.9-1.4,3.4-1.9c0.5-0.5,0.9-1.4,1.4-1.9c1.9-1.4,4.3,0,6.7-1
	c2.4-0.9,4.8-1.4,7.2-2.9c0.5,0,0.5-2.9,0-2.9c-1.9-0.9-5.3,0.5-6.2-0.9c-1-1-0.5-3.4-0.5-5.3c-4.3,0.5-8.6,0-11-2.9
	c-1.9-1.9,1-5.3,2.4-8.2h1.4c1-1.4,0.5-3.4-0.5-3.4c-3.4-0.5-8.2-1.4-6.7-5.8c-2.9,0.5-8.2-1.4-8.6,2.9c-3.8,0-8.6,1.4-10.6-1
	c-2.4-2.9,1-6.7,4.3-9.6c1-0.5,0.5-3.4-0.5-5.3c-1.4-1.9,0.5-5.8-1.4-8.2c-1.4-1-3.8,0-5.3-1c-2.4-2.4-3.8-5.8-5.8-8.2
	c-1.9-1.9-6.2,1-9.1-0.5c-0.5,0,0.5-1.9,0-2.9c-1.5-1.4-3.8,0-5.8-0.5c-1-1-1.9-2.4-1.9-3.8c-1,0-1.4-0.5-2.4,0.5
	c-2.9,2.4-6.7,1-9.6,3.4c-2.4,1.4-3.8,2.9-6.7,2.4c0,1.4,0.5,3.4,0,3.8c-1.9,1.4-4.8,1-6.3-1c-1.9-1.9,0-4.8-0.5-7.7
	c0-0.5,1.4-1,1.4-1c1.9-3.8-1.4-4.8-4.3-7.2c-0.5,0,0.5-1.9,0-2.9c-1.4-1.9-4.3-2.4-6.7-1.9V8.2c-2.9-1-4.8,1.4-7.7,1.9
	c-7.2,1.4-14.4-0.5-21.6,1c-0.5,0.5-1,1.4-1.4,1.4c-1.4,1.4-3.8,0.5-5.3-0.5c-1-1-0.5-2.9-1.4-3.4c-1.9-1.9-4.8,2.9-7.7,0.5
	c-0.5-0.9-0.5-2.4-1.4-2.9c-1.4-0.5-3.8,0.5-4.8-0.5c-1-1.4,0-3.8-1-4.3c-2.4-1-5.3-0.5-7.7-0.5c0.5-1-1,0-1-1
	c-4.8,0.5-9.6-1-14.4,1.9c-2.4,1.4-2.4,6.8-4.3,8.3c-1,1-3.8-2-5.8-1.1c-1.9,1.5-3.4,2.9-6.2,1.9c-1-0.5,0-2.9-0.5-2.9
	c-3.4-1.4-4.3,2.4-4.8,5.3c-0.5,0.5-1.4,1-1.9,1.5c-0.5,2.4,1,5.7-0.5,6.7c-1.4,1.4-5.8,1-6.7-1c-1-1.9-0.5-4.3-0.5-6.7
	c-3.4,0.5-7.2,1.9-9.6,4.3c-0.5,1-3.4,0-3.4,0.5c-1.4,3.4,3,6.1,2,9.5c-0.5,2.4-6.4,3.5-8.3,4.4c-3.8,2.9-7.7,5.3-12,8.2
	c-1.9,1.4,0.5,4.8,0,7.2c-0.5,1-1.4,0-1.9,0.5c-0.5,1.4,1.4,4.6,0.9,6c-2.4,3.9-8.2,3.6-11,1.7c-1.9-1-3.8-2.4-6.2-1.9v1.4
	c-2.9,1-3.4-1.4-5.3-2.9c-1.4-1.4-4.3-0.9-6.2,1c-1,1.4-1.9,1.4-3.9,1.4c-0.5,0-0.5,1-0.5,1.4c-1.9,0.5-3.4,1.4-4.3,2.4
	c-0.5,1,0,2.4,0,3.8c3.4-0.5,7.2,0,9.1,1.4c2.4,1.4-1.4,4.3-4.3,4.8c-1.9,0-1,2.4-1.4,4.3h-1.4c-0.5,1,0,2.4,0,2.4
	c-3.8,1-7.2,0-11,1c-1.4,0-3.4,1.4-3.4,2.9c-1.4,4.3-6.2,4.8-9.6,4.3c0,1.9-1,4.8,0.5,5.3c1.9,1,4.8,0,7.2,1v2.4
	c4.3,0,8.6-0.5,13,1.4v1c1.9,0,6.2,0.9,6.2-2.4h5.8c0-1.9-0.5-4.8,1.4-5.3c3.4-1,5.8-2.4,8.6-1.9c-1,1.9-1,4.3,0.5,5.3
	c1.4,0.9,3.8,0.9,5.8,0.5c1.4-1,2.9-1,4.3-1c-0.5-1.4,1.9-1.4,1.4-2.9c2.4,0,4.8-0.5,7.2,0v1.4c-2.4,1.9-1.4,4.8-0.9,7.2h1.4
	c1,1.4,0,3.8,1.9,3.8c2.9,0.5,7.2,1.4,9.6-1.4c1-1,5.8-1.4,6.2,1c0,1-2.4,3.4-1.4,3.8c3.4,1.4,7.2,0.5,10.6-1c2.4-1,4.3-1.9,6.2-3.4
	c2.4-1.9,4.8,1.4,7.2,0.5c1,0,1.9,0.5,2.9,0c1.9-1.4,4.3-1.4,5.3-2.9c2.9-2.4,6.2-1.9,9.1-3.8c2.4-1.4,5.3-1,7.7,0.5
	c1.4,1.4,2.4,2.9,3.8,3.9c3.4,1,5.8,2.9,7.7,5.3c1.4,1-0.5,3.4-1.4,5.3c-2.4,3.8,3.8,6.2,5.3,9.1c1.4,2.9,1,7.2-2.4,7.7
	c-6.2,1.4-7.2,2.9-13.4,4.3c-3.4,0.5-11-1.9-14.4-1c-2.9,1-9.1,1.4-18.2,1.4c-0.7,0-12.2-0.2-23.5,0c-11,0.5-23.8,3.1-26.4,2.9
	c-11.6-1.1-25.7-1.7-37.4-1.4c-11,0.2-49,0-60,1.9c0,0,44.2-0.7,48-1c3.8-0.2,52.3,2.9,69.6,1.4c17.3-1.4,77.3-1.9,87.8-1.9
	c10.6,0,73.5-3.4,81.1-0.9c7.7,2.4,14.9,0.9,18.2,0.5c3.4-0.5,69.6-0.5,82.6-1C438.8,129.1,469.5,130.6,476.3,128.2"/>
<path class="st0" d="M308.8,134.7h33.3v15.6h-1.4c-1.3-11-5.4-13-13.2-13c-3.2,0-4.2,0.3-4.2,3.7v18c5.5,0.1,8.5-1.9,9.9-10.2h1.5
	l-1.3,24.1h-1.5c0.1-8.9-2.8-11.3-8.5-11.3v18.8c0,3.4,1.1,4.4,4.8,4.4c5.7,0,11.5-2,15.2-13.8h1.6l-2.3,16.2h-33.7v-2
	c3.3-0.5,5.1-0.7,5.1-5.5v-37.6c0-5.1-2.4-5.3-5.1-5.5V134.7z"/>
<path class="st0" d="M343.2,137.6h30.3v14.8h-1.3c-1.2-7.6-2.7-12.3-12-12.3c-2.9,0-3.9,0.3-3.9,3.5v17c6.8,0.1,7.6-5.1,9.7-8.9h1.4
	l-2.3,21.1h-1.4c0.4-4.3-0.5-9.7-7.4-9.7v17.1c0,4.8,2.2,5,6,5.2v1.9h-18.5v-1.9c2-0.4,3.7-0.6,3.7-5.2v-35.5c0-4.8-2.2-5-4.2-5.2
	V137.6z"/>
<path class="st0" d="M374.6,137.6h30v14.8h-1.3c-1.2-7.6-2.7-12.3-12-12.3c-2.9,0-3.9,0.3-3.9,3.5v17c6.7,0.1,7.6-5.1,8.9-8.9h1.4
	l-1.7,21.5h-1.4c0.6-4.8-0.3-10.2-7.1-10.2v17.1c0,4.8,2.2,5,6,5.2v1.9h-19.6v-1.9c3.1-0.4,4.8-0.6,4.8-5.2v-35.5
	c0-4.8-2.2-5-3.9-5.2V137.6z"/>
<path class="st0" d="M405.7,137.6h30.5v14.8h-1.4c-1.2-10.4-5.1-12.3-12.5-12.3c-3,0-4,0.3-4,3.5v17c5.2,0.1,8-1.8,10.9-8.9h1.4
	l-2.1,21.1h-1.4c-0.7-7.5-3.4-9.7-8.8-9.7v17.8c0,3.2,1,4.1,4.6,4.1c5.3,0,10.9-1.9,14.3-13h1.5l-2.2,15.3h-31.9v-1.9
	c3.1-0.4,4.8-0.6,4.8-5.2v-35.5c0-4.8-2.3-5-3.9-5.2V137.6z"/>
<path class="st0" d="M473.3,177.9c-4,6.1-8.2,10.7-15.2,10.7c-12.7,0-19.5-12.1-19.5-25.8c0-14.9,7.8-26.4,19.3-26.4
	c4.9,0,9.1,3.6,10.5,3.6c1.5,0,2-1.5,1.4-2.3h1.5l-1.8,13.9h-0.6c0.3-4.2-4.3-12.8-10.5-12.8c-7.9,0-10.1,11.2-10.1,23.7
	c0,4.4,0.3,11.4,2.3,16.1c2.3,5.3,6.6,6.4,8.3,6.4c4.2,0,8.3-2.2,12.8-9L473.3,177.9z"/>
<path class="st0" d="M494.4,187.2H475v-1.9c4-0.4,5.3-0.6,5.3-6.8v-38.7c-3.8,0.3-9.4,0.7-10.5,12.4h-1.6l0.2-14.8H501l0.1,14.8
	h-1.6c-1.1-11.8-6.7-12.1-10.4-12.4v38.7c0,6.2,1.3,6.4,5.3,6.8V187.2z"/>
<path class="st0" d="M525.5,152.3c-1-5.1-4.3-13.6-10.7-13.6c-2.8,0-5.8,2.2-5.8,7c0,4,1,5.6,5.6,8.7l8,5.4c1.8,1.2,6,5.5,6,13.5
	c0,6.4-3.5,15.3-13.5,15.3c-5.2,0-7.6-2.5-9.3-2.5c-1.1,0-1.4,1.3-1.6,2.5h-1.6v-18.1h1.6c1.1,7.4,4.3,15.7,11.2,15.7
	c6.5,0,6.8-7.3,6.8-8.2c0-4.9-2.6-6.7-6.1-9l-3.6-2.3c-9.3-6-9.3-12.3-9.3-15.7c0-4.5,1.7-14.5,12-14.5c4.3,0,6.9,2.4,8.5,2.4
	c1.3,0,1.5-1.1,1.8-2.5h1.6v15.9H525.5z"/>
<path class="st0" d="M34.6,187.2H1.2v-2c3.2-0.5,5-0.8,5-5.5v-37.6c0-5.1-2.4-5.3-5-5.5v-1.9h20.1v1.9c-4,0.2-5.8,0.3-5.8,7.2v36.7
	c0,3.7,1.3,4.4,5.1,4.4c8.7,0,11.9-6.5,16.8-14.7h1.7L34.6,187.2z"/>
<path class="st0" d="M66.9,187.2H49.3v-1.9c3.4-0.4,4.4-0.4,4.4-2.9c0-2-1.7-7.4-2.5-9.8H38.9c-1.5,5.3-2.4,8.3-2.4,9.5
	c0,2.8,2.6,3,4.5,3.1v1.9H29.9v-1.9c2.9-0.6,3.7-3.1,5.3-8.6l12.1-40.2h1.5L61,175.2c2.5,7.8,3.3,10.3,5.9,10.2V187.2z M50.3,169.9
	L44.8,152l-5.1,17.8H50.3z"/>
<path class="st0" d="M65.2,185.4c3.3-0.5,4.8-1,4.8-5.9v-34.8c-3.1-5.1-3.9-5.3-4.6-5.3v-1.8h11.5l18.9,31.3h0.1v-22.2
	c0-4.4-0.7-6.8-5.1-7.3v-1.8h11.7v1.8c-3.9,0.7-4.2,2.4-4.2,5.9v43.3h-1.5l-24.2-39.8h-0.1v29.4c0,5.3,1.1,6.7,5.2,7.3v1.9H65.2
	V185.4z"/>
<path class="st0" d="M103.3,185.4c3.4,0,4.5-2.1,4.5-4.8v-36.2c0-4.5-2.4-4.6-4.5-4.9v-1.8H120c15.2,0,20.2,12.8,20.2,24.1
	c0,13.5-5.9,25-19.6,25.6h-17.2V185.4z M116.7,180.4c0,2.9,0.5,4.3,3.1,4.3c6.1,0,10.9-4.7,10.9-22.3c0-6.7-1.2-22.3-10.6-22.3
	c-3.5,0-3.4,1.9-3.4,3.5V180.4z"/>
<path class="st0" d="M166.7,152.3c-1-5.1-4.2-13.6-10.7-13.6c-2.8,0-5.8,2.2-5.8,7c0,4,1,5.6,5.6,8.7l8,5.4c1.9,1.2,6,5.5,6,13.5
	c0,6.4-3.5,15.3-13.5,15.3c-5.2,0-7.6-2.5-9.3-2.5c-1.1,0-1.4,1.3-1.6,2.5h-1.6v-18.1h1.6c1.1,7.4,4.2,15.7,11.2,15.7
	c6.5,0,6.8-7.3,6.8-8.2c0-4.9-2.6-6.7-6.1-9l-3.7-2.3c-9.3-6-9.3-12.3-9.3-15.7c0-4.5,1.7-14.5,12-14.5c4.4,0,6.9,2.4,8.5,2.4
	c1.2,0,1.5-1.1,1.8-2.5h1.6v15.9H166.7z"/>
<path class="st0" d="M205.2,177.9c-4,6.1-8.2,10.7-15.2,10.7c-12.7,0-19.5-12.1-19.5-25.8c0-14.9,7.8-26.4,19.3-26.4
	c4.9,0,9.1,3.6,10.5,3.6c1.5,0,2-1.5,2.5-3.4h1.5v17.2h-1.4c-1.9-6.4-6.5-15-12.7-15c-7.9,0-10.1,11.2-10.1,23.7
	c0,4.4,0.3,11.4,2.3,16.1c2.3,5.3,6.6,6.4,8.3,6.4c4.2,0,8.3-2.2,12.8-9L205.2,177.9z"/>
<path class="st0" d="M234.9,187.2h-9.7v-1.9c-1.1,0.5-3.1-1.1-3.6-2.9c-0.6-1.9-1.7-7.4-2.5-9.8h-12.2c-1.5,5.3-2.4,8.3-2.4,9.5
	c0,2.8,2.6,3,4.5,3.1v1.9h-11v-1.9c2.9-0.6,3.7-3.1,5.3-8.6l12.1-40.2h1.5l12.1,38.6c2.4,7.8,3.3,10.3,5.9,10.2V187.2z M218.2,169.9
	l-5.5-17.8l-5.1,17.8H218.2z"/>
<path class="st0" d="M231,185.4c2.7-0.6,2.8-0.6,3.2-1c0.7-0.7,1.4-1.6,1.4-5.7v-32.5c0-6.2-1.7-6.4-4.6-6.8v-1.8h17.5
	c4.4,0,14.3,1.1,14.3,13.5c0,2.6-0.6,7.8-5,11.1c-3.5,2.6-6.3,2.7-13.4,2.8v13.7c0,5.9,1,6.1,4.8,6.8v1.9H231V185.4z M244.4,162.4
	c6.6,0.2,9-2,9-11.1c0-8.4-2-11.2-6.4-11.2c-1.9,0-2.6,0.9-2.6,2.6V162.4z"/>
<path class="st0" d="M262.1,137.6h31.4v14.8h-1.4c-1.3-10.4-5.1-12.3-12.5-12.3c-3,0-4,0.3-4,3.5v17c5.2,0.1,8-1.8,9.6-8.9h1.4
	l-2.2,21.1h-1.4c0.8-7.5-2-9.7-7.4-9.7v17.8c0,3.2,1,4.1,4.6,4.1c5.3,0,10.9-1.9,14.3-13h1.5l-2.2,15.3h-31.9v-1.9
	c3.1-0.4,4.8-0.6,4.8-5.2v-35.5c0-4.8-2.3-5-4.8-5.2V137.6z"/>
<path class="st0" d="M236.2,205.8c0,2.2-0.2,4.1-1.6,6.1c-1.5,2.1-3.8,3-6.3,3c-4.8,0-8.2-3.3-8.2-8.1c0-5,3.4-8.3,8.3-8.3
	c3.2,0,5.6,1.4,6.9,4.3l-3.8,1.6c-0.5-1.5-1.7-2.4-3.3-2.4c-2.6,0-4,2.5-4,4.8c0,2.4,1.4,4.8,4,4.8c1.7,0,3.1-0.9,3.2-2.7h-3.3v-3.1
	H236.2z"/>
<path class="st0" d="M253.8,214.4h-5l-3.8-5.9h0v5.9h-4V199h6c3,0,5.3,1.4,5.3,4.7c0,2.1-1.2,3.9-3.4,4.3L253.8,214.4z M245.1,205.9
	h0.4c1.3,0,2.8-0.2,2.8-1.9c0-1.7-1.5-1.9-2.8-1.9h-0.4V205.9z"/>
<path class="st0" d="M274.1,206.4c0,5-3.6,8.5-8.5,8.5c-4.9,0-8.5-3.5-8.5-8.5c0-4.6,4.1-7.9,8.5-7.9
	C270.1,198.5,274.1,201.8,274.1,206.4 M261.3,206.4c0,2.7,2,4.6,4.3,4.6c2.4,0,4.3-1.9,4.3-4.6c0-2.1-1.9-4-4.3-4
	C263.3,202.4,261.3,204.3,261.3,206.4"/>
<path class="st0" d="M292.3,199v8.6c0,2-0.1,3.9-1.6,5.4c-1.3,1.3-3.3,1.7-5.1,1.7c-1.8,0-3.8-0.4-5.1-1.7c-1.5-1.5-1.6-3.4-1.6-5.4
	V199h4v8.1c0,2,0.1,4.2,2.7,4.2s2.7-2.2,2.7-4.2V199H292.3z"/>
<path class="st0" d="M297.9,199h6.1c3.3,0,5.6,1.5,5.6,5c0,3.6-2,5.2-5.4,5.2h-2.3v5.1h-4V199z M301.9,206.1h0.7
	c1.5,0,2.9,0,2.9-1.9c0-1.9-1.3-2-2.9-2h-0.7V206.1z"/>
<line class="st2" x1="212.8" y1="208" x2="0" y2="208"/>
<line class="st2" x1="528" y1="208" x2="315.2" y2="208"/>
</svg>
